<svg width="70" height="70" viewBox="0 0 70 70" fill="none" xmlns="http://www.w3.org/2000/svg">
<path d="M27.2225 5.04687V12.1562H20.4169C18.8006 12.1562 17.5002 13.5146 17.5002 15.2031V21.2969C17.5002 22.9854 18.8006 24.3437 20.4169 24.3437H27.2225V31.4531C27.2225 33.1416 28.5229 34.5 30.1392 34.5H35.9726C37.589 34.5 38.8893 33.1416 38.8893 31.4531V24.3437H45.6949C47.3113 24.3437 48.6116 22.9854 48.6116 21.2969V15.2031C48.6116 13.5146 47.3113 12.1562 45.6949 12.1562H38.8893V5.04687C38.8893 3.3584 37.589 2 35.9726 2H30.1392C28.5229 2 27.2225 3.3584 27.2225 5.04687ZM68.0198 51.791C70.1831 50.1279 70.6449 46.9541 69.0528 44.6943C67.4608 42.4346 64.4226 41.9521 62.2594 43.6152L47.7123 54.8125H33.0559C31.9865 54.8125 31.1114 53.8984 31.1114 52.7812C31.1114 51.6641 31.9865 50.75 33.0559 50.75H35.0004H42.7782C44.9293 50.75 46.6672 48.9346 46.6672 46.6875C46.6672 44.4404 44.9293 42.625 42.7782 42.625H35.0004H33.0559H23.5402C20.0037 42.625 16.5766 43.8818 13.8179 46.1797L8.3612 50.75H3.88893C1.73787 50.75 0 52.5654 0 54.8125V62.9375C0 65.1846 1.73787 67 3.88893 67H23.3336H42.839C46.3634 67 49.8026 65.8193 52.6464 63.6357L68.032 51.791H68.0198ZM23.4187 50.75H23.528C23.4916 50.75 23.4551 50.75 23.4187 50.75Z" fill="#FF9D00"/>
</svg>
