<svg width="70" height="70" viewBox="0 0 70 70" fill="none" xmlns="http://www.w3.org/2000/svg">
<path d="M15.1074 67.5L15.1074 2.5C15.1074 1.83696 14.7622 1.20107 14.1476 0.732233C13.5331 0.263392 12.6996 0 11.8305 0L5.27687 0C4.4078 0 3.57431 0.263392 2.95978 0.732233C2.34526 1.20107 2.00003 1.83696 2.00003 2.5L2.00003 67.5C2.00003 68.163 2.34526 68.7989 2.95978 69.2678C3.57431 69.7366 4.4078 70 5.27687 70H11.8305C12.6996 70 13.5331 69.7366 14.1476 69.2678C14.7622 68.7989 15.1074 68.163 15.1074 67.5ZM41.3221 67.9953L41.3221 27.0047C41.3224 26.7414 41.2546 26.4806 41.1227 26.2373C40.9907 25.994 40.7972 25.7729 40.5531 25.5867C40.3091 25.4005 40.0193 25.2529 39.7004 25.1522C39.3815 25.0515 39.0397 24.9998 38.6945 25H30.8424C30.4972 24.9998 30.1554 25.0515 29.8365 25.1522C29.5176 25.2529 29.2278 25.4005 28.9838 25.5867C28.7397 25.7729 28.5462 25.994 28.4142 26.2373C28.2823 26.4806 28.2145 26.7414 28.2148 27.0047L28.2148 67.9953C28.2145 68.2586 28.2823 68.5194 28.4142 68.7627C28.5462 69.006 28.7397 69.2271 28.9838 69.4133C29.2278 69.5995 29.5176 69.7472 29.8365 69.8478C30.1554 69.9485 30.4972 70.0002 30.8424 70H38.6945C39.0397 70.0002 39.3815 69.9485 39.7004 69.8478C40.0193 69.7472 40.3091 69.5995 40.5531 69.4133C40.7972 69.2271 40.9907 69.006 41.1227 68.7627C41.2546 68.5194 41.3224 68.2586 41.3221 67.9953Z" fill="#FF9D00"/>
<path d="M53.4929 67.915L53.4929 13.7484C53.4929 13.1958 53.8628 12.6659 54.5213 12.2752C55.1797 11.8845 56.0727 11.665 57.0039 11.665L64.0257 11.665C64.9568 11.665 65.8498 11.8845 66.5082 12.2752C67.1667 12.6659 67.5366 13.1958 67.5366 13.7484L67.5366 67.915C67.5366 68.4676 67.1667 68.9975 66.5082 69.3882C65.8498 69.7789 64.9568 69.9984 64.0257 69.9984H57.0039C56.0727 69.9984 55.1797 69.7789 54.5213 69.3882C53.8628 68.9975 53.4929 68.4676 53.4929 67.915Z" fill="#FF9D00"/>
</svg>
